<svg xmlns="http://www.w3.org/2000/svg" width="55" height="56" viewBox="0 0 55 56" version="1.1">
	<path d="M 15.901 14.626 L 0.500 29.252 0.500 36.876 L 0.500 44.500 8 44.756 L 15.500 45.012 31.500 30.995 C 40.300 23.285, 47.651 16.530, 47.835 15.983 C 48.354 14.443, 34.974 0, 33.029 0 C 32.079 0, 24.372 6.582, 15.901 14.626 M 18.250 18.929 C 5.473 31.306, 5 31.912, 5 35.882 L 5 40 9.451 40 C 13.700 40, 14.504 39.474, 27.201 28.383 C 34.515 21.994, 40.929 16.367, 41.454 15.879 C 42.483 14.922, 34.365 5.965, 32.542 6.047 C 31.969 6.072, 25.538 11.869, 18.250 18.929 M 32.380 40.452 C 31.250 43.396, 33.145 44, 43.500 44 C 54.019 44, 56.272 43.237, 53.964 40.456 C 52.219 38.355, 33.186 38.351, 32.380 40.452 M 3.278 52.122 C 2.661 52.739, 2.394 53.864, 2.685 54.622 C 3.115 55.741, 7.851 56, 27.907 56 C 53.114 56, 56.506 55.519, 53.854 52.324 C 52.398 50.570, 5.019 50.381, 3.278 52.122" stroke="none" fill="black" fill-rule="evenodd"/>
</svg>