<svg xmlns="http://www.w3.org/2000/svg" width="54" height="54" viewBox="0 0 54 54" version="1.1">
	<path d="M 19.365 1.029 C 8.474 4.393, -0 15.726, -0 26.928 C 0 40.137, 10.254 51.839, 23.407 53.642 C 29.642 54.497, 35.211 53.333, 34.811 51.259 C 34.556 49.931, 33.358 49.678, 28.299 49.884 C 14.525 50.447, 4.078 40.692, 4.022 27.218 C 3.984 18.108, 8.253 11.083, 16.500 6.683 C 24.016 2.672, 36.840 4.155, 43.250 9.776 C 45.596 11.832, 45.454 12.796, 42.750 13.180 C 38.523 13.781, 40.490 15.499, 45.750 15.802 L 51 16.105 51 10.479 C 51 5.642, 50.755 4.907, 49.250 5.236 C 48.288 5.447, 47.612 6.155, 47.750 6.809 C 48.106 8.504, 46.479 8.283, 44.939 6.427 C 40.933 1.600, 27.023 -1.336, 19.365 1.029 M 24 21.038 L 24 32.075 33.250 31.788 C 40.678 31.557, 42.500 31.205, 42.500 30 C 42.500 28.821, 40.842 28.438, 34.750 28.208 L 27 27.916 27 18.958 C 27 11.662, 26.722 10, 25.500 10 C 24.257 10, 24 11.893, 24 21.038 M 50.193 26.250 C 50.408 29.224, 50.950 30.500, 52 30.500 C 53.050 30.500, 53.592 29.224, 53.807 26.250 C 54.079 22.493, 53.870 22, 52 22 C 50.130 22, 49.921 22.493, 50.193 26.250 M 48.557 36.223 C 47.701 37.445, 47 39.245, 47 40.223 C 47 43.058, 49.804 42.280, 51.515 38.971 C 53.952 34.259, 51.516 31.997, 48.557 36.223 M 40.142 46.031 C 37.989 47.825, 37.717 51.008, 39.719 50.995 C 41.510 50.984, 46.278 46.259, 45.602 45.166 C 44.573 43.501, 42.852 43.773, 40.142 46.031" stroke="none" fill="black" fill-rule="evenodd"/>
</svg>