<svg xmlns="http://www.w3.org/2000/svg" width="51" height="51" viewBox="0 0 51 51" version="1.1">
	<path d="M 17.716 1.298 C 16.610 4.179, 18.567 5.109, 25.091 4.802 C 30.733 4.536, 31.500 4.261, 31.500 2.500 C 31.500 0.731, 30.736 0.466, 24.873 0.207 C 19.946 -0.011, 18.111 0.269, 17.716 1.298 M 2.059 3.941 C 0.114 5.886, 0 7.138, -0 26.500 C -0 45.667, 0.130 47.130, 2 49 C 3.876 50.876, 5.333 51, 25.548 51 L 47.095 51 49.548 48.354 C 51.985 45.724, 52 45.583, 52 25.187 C 52 13.901, 51.737 4.929, 51.417 5.250 C 51.096 5.571, 49.944 4.944, 48.858 3.858 C 47.525 2.525, 45.843 1.983, 43.691 2.191 C 39.704 2.577, 39.561 4.105, 43.415 5.136 C 45.018 5.564, 46.698 6.497, 47.149 7.208 C 47.600 7.918, 47.976 16.680, 47.985 26.679 C 47.997 41.885, 47.743 45.114, 46.429 46.429 C 44.089 48.768, 6.911 48.768, 4.571 46.429 C 3.257 45.114, 3.003 41.885, 3.015 26.679 C 3.024 16.680, 3.400 7.918, 3.851 7.208 C 4.302 6.497, 5.861 5.597, 7.316 5.208 C 11.074 4.203, 11.070 2.555, 7.309 2.191 C 5.121 1.979, 3.471 2.529, 2.059 3.941 M 0.423 26.500 C 0.424 38.050, 0.570 42.638, 0.747 36.696 C 0.924 30.753, 0.923 21.303, 0.745 15.696 C 0.567 10.088, 0.422 14.950, 0.423 26.500 M 11 14.500 C 11 15.764, 13.278 16, 25.500 16 C 37.722 16, 40 15.764, 40 14.500 C 40 13.236, 37.722 13, 25.500 13 C 13.278 13, 11 13.236, 11 14.500 M 11 25.500 C 11 26.764, 13.278 27, 25.500 27 C 37.722 27, 40 26.764, 40 25.500 C 40 24.236, 37.722 24, 25.500 24 C 13.278 24, 11 24.236, 11 25.500 M 11 36.500 C 11 37.764, 13.278 38, 25.500 38 C 37.722 38, 40 37.764, 40 36.500 C 40 35.236, 37.722 35, 25.500 35 C 13.278 35, 11 35.236, 11 36.500" stroke="none" fill="black" fill-rule="evenodd"/>
</svg>