<svg xmlns="http://www.w3.org/2000/svg" width="54" height="60" viewBox="0 0 54 60" version="1.1">
	<path d="M 20.707 1.612 C 12.191 4.230, 6 12.708, 6 21.752 C 6 23.413, 7.237 27.067, 8.750 29.873 C 12.335 36.524, 24.577 50, 27.034 50 C 29.023 50, 43.047 34.743, 45.607 29.794 C 48.429 24.336, 48.463 18.692, 45.710 12.678 C 42.825 6.377, 38.173 2.707, 31 1.074 C 25.638 -0.147, 26.596 -0.198, 20.707 1.612 M 21.001 6.069 C 17.737 7.441, 14.162 10.824, 12.405 14.200 C 10.707 17.464, 10.572 24.316, 12.146 27.316 C 13.577 30.041, 26.087 45, 26.937 45 C 27.714 45, 40.060 30.465, 41.715 27.602 C 45.048 21.834, 42.280 12.483, 35.824 7.702 C 32.724 5.406, 24.684 4.520, 21.001 6.069 M 23.357 12.954 C 17.138 15.573, 16.327 24.429, 21.913 28.718 C 23.959 30.289, 30.041 30.289, 32.087 28.718 C 34.338 26.990, 36 23.551, 36 20.622 C 36 15.194, 28.638 10.729, 23.357 12.954 M 24.427 17.765 C 21.232 19.953, 23.122 26, 27 26 C 28.038 26, 29.553 25.048, 30.368 23.885 C 32.544 20.778, 30.702 17.031, 27 17.031 C 26.175 17.031, 25.017 17.361, 24.427 17.765 M 5.848 44.719 C -0.063 51.654, -1.145 57.523, 3.317 58.448 C 4.517 58.697, 15.590 59.088, 27.922 59.316 L 50.344 59.732 52.672 57.220 C 53.952 55.838, 54.964 53.986, 54.921 53.104 C 54.864 51.940, 54.696 51.867, 54.308 52.840 C 53.982 53.657, 52.655 52.221, 50.908 49.162 C 47.628 43.419, 46.299 42.301, 44.679 43.921 C 43.817 44.783, 44.225 46.299, 46.324 50.034 L 49.115 55 27.058 55 C 14.926 55, 5 54.766, 5 54.480 C 5 54.194, 6.166 52.114, 7.591 49.856 C 9.818 46.329, 9.984 45.555, 8.774 44.345 C 7.564 43.135, 7.153 43.188, 5.848 44.719 M 0.079 54.583 C 0.127 55.748, 0.364 55.985, 0.683 55.188 C 0.972 54.466, 0.936 53.603, 0.604 53.271 C 0.272 52.939, 0.036 53.529, 0.079 54.583" stroke="none" fill="black" fill-rule="evenodd"/>
</svg>