<svg xmlns="http://www.w3.org/2000/svg" width="66" height="58" viewBox="0 0 66 58" version="1.1">
	<path d="M 32.250 0.718 C 30.452 1.363, 30.566 11.619, 32.378 12.315 C 34.605 13.169, 36 10.900, 36 6.422 C 36 2.175, 34.509 -0.094, 32.250 0.718 M 4.638 9.501 C 3.990 11.190, 9.472 18, 11.481 18 C 12.182 18, 13.282 17.365, 13.926 16.590 C 14.856 15.468, 14.450 14.444, 11.945 11.590 C 8.641 7.827, 5.613 6.961, 4.638 9.501 M 55.093 11.404 C 51.659 14.947, 51.406 18, 54.546 18 C 56.868 18, 62.208 12.317, 61.812 10.265 C 61.246 7.325, 58.614 7.772, 55.093 11.404 M 25.281 18.911 C 19.470 20.398, 11.205 25.011, 6.058 29.638 C 1.670 33.583, 1 34.687, 1 37.976 C 1 41.124, 1.672 42.375, 4.963 45.348 C 21.691 60.460, 39.806 61.637, 57.236 48.743 C 64.223 43.575, 66.717 39.146, 64.989 34.974 C 63.507 31.395, 56.453 25.841, 48.282 21.818 C 41.578 18.518, 31.696 17.269, 25.281 18.911 M 28.500 24.066 C 26.300 24.488, 23.177 25.342, 21.561 25.964 C 17.108 27.676, 6 35.911, 6 37.500 C 6 39.621, 11.792 44.598, 18.500 48.239 C 23.939 51.191, 25.299 51.496, 33.036 51.498 C 40.360 51.500, 42.312 51.116, 46.783 48.799 C 53.896 45.113, 60 40.047, 60 37.831 C 60 35.356, 49.248 27.552, 43.248 25.672 C 36.516 23.561, 33.078 23.187, 28.500 24.066 M 23.004 36.250 C 23.011 38.681, 27.035 44.063, 29.566 45.025 C 34.504 46.903, 38.002 46.198, 41.600 42.600 C 45.710 38.490, 46.154 35, 42.567 35 C 41.013 35, 39.906 35.722, 39.500 37.001 C 38.036 41.614, 32.262 41.855, 29.358 37.424 C 27.690 34.877, 22.997 34.010, 23.004 36.250" stroke="none" fill="black" fill-rule="evenodd"/>
</svg>