<svg xmlns="http://www.w3.org/2000/svg" width="55" height="55" viewBox="0 0 55 55" version="1.1">
	<path d="M 19.615 2.397 C 18.840 5.485, 13.069 8.927, 9.736 8.290 C 7.520 7.866, 6.772 8.538, 3.765 13.653 C 0.523 19.166, 0.415 19.637, 1.876 21.898 C 3.686 24.701, 3.444 30.392, 1.382 33.540 C 0.076 35.532, 0.238 36.235, 3.185 41.364 C 6.059 46.368, 6.781 47, 9.630 47 C 13.830 47, 18.905 49.916, 19.636 52.750 C 20.171 54.824, 20.786 55, 27.500 55 C 34.219 55, 34.827 54.826, 35.348 52.750 C 35.987 50.208, 41.035 47.227, 45.437 46.791 C 47.775 46.559, 48.971 45.480, 51.299 41.500 C 52.907 38.750, 54.736 36.175, 55.362 35.778 C 56.123 35.296, 55.754 34.531, 54.250 33.471 C 51.260 31.365, 51.167 24.978, 54.068 20.904 C 55.206 19.307, 55.684 18, 55.131 18 C 54.577 18, 52.900 15.750, 51.403 13 C 48.997 8.579, 48.305 8, 45.422 8 C 41.196 8, 36.249 5.130, 35.529 2.259 C 35.004 0.169, 34.410 0, 27.589 0 C 20.644 0, 20.182 0.139, 19.615 2.397 M 23.346 8.784 C 22.750 11.063, 14.885 15.277, 12.754 14.459 C 10.375 13.546, 7.366 19.531, 9.133 21.660 C 10.568 23.390, 10.354 31.858, 8.827 33.704 C 7.185 35.690, 10.751 40.770, 13.428 40.259 C 16.168 39.735, 22.707 43.500, 23.523 46.073 C 24.348 48.671, 30.607 48.812, 31.422 46.250 C 32.150 43.966, 40.160 39.740, 42.246 40.541 C 44.625 41.454, 47.634 35.469, 45.867 33.340 C 44.415 31.591, 44.653 23.134, 46.207 21.255 C 47.773 19.361, 44.515 15, 41.534 15 C 38.309 15, 32.241 11.336, 31.477 8.927 C 30.638 6.284, 24.031 6.167, 23.346 8.784 M 23.500 17.899 C 16.987 20.716, 15.261 29.716, 20.273 34.727 C 22.473 36.928, 23.965 37.500, 27.500 37.500 C 40.095 37.500, 41.423 19.123, 28.946 17.486 C 27.051 17.237, 24.600 17.423, 23.500 17.899 M 25.046 25.444 C 22.345 28.699, 26.815 32.614, 29.811 29.618 C 31.084 28.344, 31.215 27.563, 30.376 26.231 C 28.916 23.913, 26.601 23.571, 25.046 25.444" stroke="none" fill="black" fill-rule="evenodd"/>
</svg>