<svg xmlns="http://www.w3.org/2000/svg" width="58" height="55" viewBox="0 0 58 55" version="1.1">
	<path d="M 26.307 0.643 C 25.651 0.910, 23.420 4.024, 21.350 7.563 C 19.280 11.101, 16.892 14.191, 16.043 14.429 C 15.194 14.667, 11.916 15.374, 8.758 16 C 3.198 17.102, 0 19.532, 0 22.654 C -0 23.319, 2.388 26.645, 5.306 30.044 L 10.612 36.225 9.786 43.141 C 8.387 54.853, 11.483 57.068, 22.360 52.136 L 29 49.125 35.640 52.136 C 46.532 57.075, 49.839 54.637, 48.258 42.836 L 47.378 36.269 53.189 29.445 C 56.385 25.693, 59 21.957, 59 21.144 C 59 20.332, 58.703 19.964, 58.340 20.327 C 57.977 20.690, 57.073 20.121, 56.331 19.063 C 55.493 17.866, 52.814 16.708, 49.242 16 C 46.084 15.374, 42.806 14.667, 41.957 14.429 C 41.108 14.191, 38.727 11.113, 36.666 7.589 C 32.447 0.378, 30.375 -1.012, 26.307 0.643 M 25.222 11.992 C 21.508 18.754, 20.721 19.319, 12.750 20.959 C 9.588 21.610, 7 22.376, 7 22.661 C 7 22.947, 9.086 25.623, 11.636 28.608 L 16.273 34.035 15.595 41.517 C 15.222 45.633, 15.104 49, 15.334 49 C 15.563 49, 18.295 47.875, 21.404 46.500 C 24.513 45.125, 27.931 44, 29 44 C 30.069 44, 33.487 45.125, 36.596 46.500 C 39.705 47.875, 42.437 49, 42.666 49 C 42.896 49, 42.778 45.633, 42.405 41.517 L 41.727 34.035 46.364 28.608 C 48.914 25.623, 51 22.947, 51 22.661 C 51 22.376, 48.413 21.610, 45.250 20.959 C 37.279 19.319, 36.492 18.754, 32.778 11.992 C 30.975 8.709, 29.275 6.024, 29 6.024 C 28.725 6.024, 27.025 8.709, 25.222 11.992 M 0.079 22.583 C 0.127 23.748, 0.364 23.985, 0.683 23.188 C 0.972 22.466, 0.936 21.603, 0.604 21.271 C 0.272 20.939, 0.036 21.529, 0.079 22.583 M 21.575 27.520 C 19.836 28.836, 19.786 29.232, 21.063 31.618 C 21.841 33.071, 23.945 34.960, 25.739 35.815 C 28.689 37.222, 29.311 37.222, 32.261 35.815 C 34.055 34.960, 36.159 33.071, 36.937 31.618 C 38.214 29.232, 38.164 28.836, 36.425 27.520 C 33.814 25.545, 33.495 25.619, 32.182 28.500 C 31.508 29.979, 30.209 31, 29 31 C 27.791 31, 26.492 29.979, 25.818 28.500 C 24.505 25.619, 24.186 25.545, 21.575 27.520" stroke="none" fill="black" fill-rule="evenodd"/>
</svg>