<svg xmlns="http://www.w3.org/2000/svg" width="50" height="50" viewBox="0 0 50 50" version="1.1">
	<path d="M 11 2.500 C 10.215 4.565, 9.384 5, 6.225 5 C 4.121 5, 1.860 5.540, 1.200 6.200 C -0.496 7.896, -0.496 47.104, 1.200 48.800 C 2.063 49.663, 8.766 50, 25.045 50 C 45.713 50, 47.835 49.840, 49.345 48.171 C 50.770 46.596, 51 43.533, 51 26.112 C 51 13.881, 50.632 6.109, 50.069 6.457 C 49.557 6.774, 48.856 6.575, 48.510 6.016 C 48.165 5.457, 46.097 5, 43.916 5 C 40.606 5, 39.793 4.587, 39 2.500 C 38.053 0.010, 37.999 -0, 25 -0 C 12.001 0, 11.947 0.010, 11 2.500 M 13.698 2.636 C 13.314 3.019, 13 4.608, 13 6.167 L 13 9 25.063 9 L 37.127 9 36.813 5.750 L 36.500 2.500 25.448 2.219 C 19.369 2.065, 14.081 2.252, 13.698 2.636 M 0.423 27.500 C 0.424 39.050, 0.570 43.638, 0.747 37.696 C 0.924 31.753, 0.923 22.303, 0.745 16.696 C 0.567 11.088, 0.422 15.950, 0.423 27.500 M 3.229 27.250 L 3.500 47.500 25 47.500 L 46.500 47.500 46.821 45 C 46.997 43.625, 47.897 41.912, 48.821 41.192 C 50.387 39.972, 50.381 39.817, 48.729 38.881 C 47.755 38.329, 47.223 37.447, 47.548 36.922 C 47.873 36.397, 48.557 36.226, 49.069 36.543 C 49.581 36.859, 50 36.465, 50 35.666 C 50 34.867, 49.325 33.955, 48.500 33.638 C 47.273 33.167, 47 30.692, 47 20.031 L 47 7 43.070 7 C 39.755 7, 39.089 7.353, 38.820 9.250 C 38.506 11.456, 38.239 11.500, 25 11.500 C 11.761 11.500, 11.494 11.456, 11.180 9.250 C 10.911 7.350, 10.246 7, 6.910 7 L 2.959 7 3.229 27.250 M 13 18.719 C 13 19.114, 15.347 21.814, 18.216 24.719 L 23.432 30 18.024 35.475 C 15.050 38.487, 12.939 41.273, 13.333 41.667 C 13.727 42.061, 16.513 39.950, 19.525 36.976 L 25 31.568 30.475 36.976 C 33.487 39.950, 36.273 42.061, 36.667 41.667 C 37.061 41.273, 34.950 38.487, 31.976 35.475 L 26.568 30 31.784 24.719 C 34.653 21.814, 37 19.114, 37 18.719 C 37 16.664, 33.745 18.565, 29.511 23.092 L 24.748 28.183 19.593 23.092 C 14.679 18.239, 13 17.125, 13 18.719" stroke="none" fill="black" fill-rule="evenodd"/>
</svg>