<svg xmlns="http://www.w3.org/2000/svg" width="56" height="55" viewBox="0 0 56 55" version="1.1">
	<path d="M 18.591 1.573 C 0.018 8.378, -5.225 32.708, 8.847 46.781 C 17.121 55.055, 30.679 57.042, 40.879 51.477 C 47.323 47.961, 52.270 41.831, 53.942 35.292 C 54.616 32.656, 55.616 29.387, 56.164 28.027 C 56.853 26.316, 56.827 25.442, 56.080 25.193 C 55.486 24.995, 55 23.834, 55 22.613 C 55 18.849, 50.032 10.183, 45.795 6.557 C 38.578 0.379, 27.425 -1.664, 18.591 1.573 M 20.759 5.363 C 6.737 10.592, 1 25.091, 7.793 38.136 C 11.773 45.778, 18.877 50, 27.755 50 C 35.008 50, 38.748 48.458, 44.231 43.206 C 54.512 33.356, 52.303 15.410, 39.863 7.719 C 34.313 4.287, 26.295 3.299, 20.759 5.363 M 31.757 25.721 L 26.037 31.442 22.089 27.587 C 19.562 25.120, 17.576 23.949, 16.571 24.335 C 15.707 24.666, 15.003 25.289, 15.006 25.719 C 15.018 27.271, 24.726 37, 26.263 37 C 28.078 37, 41 23.224, 41 21.289 C 41 18.463, 37.188 20.290, 31.757 25.721" stroke="none" fill="black" fill-rule="evenodd"/>
</svg>